<svg width="76" height="81" xmlns="http://www.w3.org/2000/svg"><path d="M71.1 35.7c-.9.2-1.6.7-2.1 1.3-.7.8-1.9 1.1-2.9.8l-3.6-1c-1-.3-1.7-1-2-2-.2-.9-.5-1.7-.9-2.5-.5-1.1-.3-2.4.6-3.2l5.2-5.1c.9-.9 2.3-1 3.4-.4.3.2.7.3 1.1.4 1.1.2 2.4-.1 3.2-.8 2-1.8 1.7-5-.7-6.3-1.3-.7-3-.6-4.2.4-.9.7-1.3 1.6-1.4 2.6-.1 1.1-.7 2-1.7 2.4l-7.5 3.3c-1.1.5-2.3.2-3.2-.6-.8-.7-1.6-1.4-2.5-2.1-1-.7-1.5-2-1.1-3.2l.6-2c.1 0 .3.1.4.1 2.4.4 4.6-1.4 4.5-3.9 0-1.5-1-2.8-2.4-3.4-2.3-.9-4.8.5-5.2 2.9-.2.9 0 1.7.4 2.4.5 1 .3 2.2-.3 3-.7.9-2 1.4-3.1 1-1-.3-1.9-.5-2.9-.7-1.1-.2-2-1-2.3-2l-2.8-9.2c.1 0 .3-.1.4-.1 2.2-1 3-3.7 1.6-5.8C38.8.8 37.3.2 35.8.5c-2.5.5-3.7 3.1-2.8 5.3.4.8 1 1.4 1.7 1.8 1 .5 1.5 1.6 1.4 2.7l-.5 6.6c-.1 1.2-.9 2.3-2.1 2.6-1.9.5-3.6 1.2-5.3 2.1-1.2.6-2.6.4-3.5-.6l-1.6-1.8.3-.3c1.6-1.8 1.1-4.7-1.1-5.9-1.3-.7-2.9-.6-4.1.3-2 1.5-2 4.4-.2 6 .7.6 1.5.9 2.3.9 1.1 0 2 .8 2.4 1.8l.4 1c.4 1 .2 2.2-.6 3-1 1.1-1.9 2.3-2.6 3.5-.6 1-1.7 1.5-2.8 1.4L7.7 30v-.5c-.1-2.4-2.3-4.2-4.7-3.6-1.4.3-2.6 1.5-2.9 3-.5 2.5 1.5 4.6 3.9 4.6.9 0 1.7-.3 2.3-.9.8-.7 2.1-.7 3-.3l5.8 2.9c1.1.5 1.7 1.7 1.6 2.9-.1 1-.2 1.9-.2 2.9s.1 2 .2 2.9c.1 1.1-.3 2.2-1.2 2.8l-6.7 4.7c-.1-.1-.2-.3-.3-.4-1.6-1.8-4.5-1.7-6 .4-.9 1.2-.9 2.8-.2 4.1 1.3 2.2 4.1 2.6 5.9 1 .7-.6 1.1-1.4 1.2-2.2.2-1.1 1.1-1.9 2.1-2.2l4.7-1.2c1.2-.3 2.6.2 3.2 1.3.6 1.1 1.4 2.1 2.2 3.1.8.9.8 2.2.2 3.3L20.4 61c-.1-.1-.3-.2-.4-.2-2.2-.9-4.8.3-5.3 2.8-.3 1.5.3 3 1.5 3.8 2.1 1.5 4.8.6 5.8-1.6.3-.8.4-1.7.2-2.5-.3-1.1.2-2.2 1-2.9l.3-.3c1-.8 2.3-.9 3.4-.2s2.3 1.3 3.5 1.8c1.2.5 1.9 1.7 1.8 3l-1 8.4h-.5c-2.4 0-4.3 2.2-3.8 4.7.3 1.4 1.5 2.6 2.9 2.9 2.5.5 4.7-1.4 4.7-3.7 0-.9-.3-1.7-.8-2.3-.7-.9-.7-2.1-.2-3l4.4-8.3h.8c1.9 0 3.8-.2 5.5-.7 1.1-.3 2.3.1 3.1 1l3 3.9c-.1.1-.2.2-.4.3-1.7 1.7-1.5 4.6.6 6 1.2.8 2.9.8 4.1 0 2.1-1.4 2.4-4.2.7-5.9-.6-.6-1.4-1-2.2-1.1-1.1-.1-2-1-2.3-2l-.6-2.1c-.4-1.2.1-2.5 1.1-3.2 1.4-.9 2.6-2 3.7-3.2.8-.9 2.2-1.1 3.3-.7l8.5 3.6c-.1.1-.1.3-.2.4-.7 2.3.9 4.7 3.5 4.9 1.5.1 2.9-.7 3.6-2 1.2-2.2 0-4.9-2.3-5.5-.8-.2-1.7-.2-2.5.1-1 .4-2.2.1-3-.6l-5.4-5.1c-.8-.8-1.1-2-.7-3.1.8-2.3 1.2-4.7 1.2-7.3v-.6l6.8-.7c0 .2 0 .3.1.5.5 2.3 3.1 3.7 5.4 2.6 1.3-.6 2.2-2 2.2-3.5.2-2.5-2.1-4.3-4.4-3.7zm-46 9.9c-1.9 0-2.4-2.7-2.4-5.2s1.6-4.5 3.5-4.5c3.5 0 4 2.8 4 5.3s-3.2 4.4-5.1 4.4zm14.3 11.7c-2.6 0-5.5-1.9-5.5-4.2 0-2.3 3.1-3.4 5.7-3.4s4.5 1 4.5 3.4c0 2.3-2.1 4.2-4.7 4.2zm-.5-20.5c-2.9 0-6.4-2.5-6.4-5.7s3.6-5.7 6.4-5.7c2.9 0 5.2 1.3 5.2 4.5s-2.3 6.9-5.2 6.9zm11.5 9.6c-2.8 0-5.1-2.6-5.1-4.6 0-2 2.3-2.6 5.1-2.6s5.1 1.6 5.1 3.6-2.3 3.6-5.1 3.6z" fill="#9B59B6" fill-rule="nonzero"/></svg>